<svg version="1.1" id="svg1" xml:space="preserve" xmlns="http://www.w3.org/2000/svg" xmlns:svg="http://www.w3.org/2000/svg" viewBox="83.55 134.32 48.2 94.95"><defs id="defs1"/><g id="layer1"><path style="fill:#000000" d="m 87.296038,229.03016 c -0.139398,-0.18185 -0.118581,-2.25797 0.0645,-6.4324 0.148681,-3.39013 0.2748,-6.76167 0.280265,-7.49231 l 0.0099,-1.32842 h 17.262367 17.26238 l 0.008,0.90333 c 0.004,0.49683 0.13177,3.86837 0.28346,7.49231 0.18951,4.52736 0.2104,6.67299 0.0668,6.85749 -0.16239,0.20861 -1.70957,0.25603 -6.93455,0.21255 l -6.72553,-0.056 -0.10154,-4.14468 c -0.0834,-3.4056 -0.16488,-4.2659 -0.45673,-4.82447 -1.15021,-2.20138 -4.05218,-2.62101 -5.96568,-0.86267 -1.14841,1.05529 -1.18539,1.2177 -1.29489,5.68714 l -0.10154,4.14468 -6.725518,0.056 c -5.226295,0.0435 -6.771407,-0.004 -6.931356,-0.21255 z m -2.54935,-18.39829 -1.165096,-1.23223 0.05448,-5.19734 0.05448,-5.19734 h 4.264822 4.264822 l 0.05667,2.81626 0.05667,2.81626 h 3.243494 3.24349 v -2.75058 c 0,-1.96937 0.0721,-2.79818 0.25386,-2.91819 0.13962,-0.0922 1.45112,-0.13639 2.91445,-0.0982 l 2.6606,0.0694 0.13184,-1.00674 c 0.0725,-0.5537 0.13185,-1.90203 0.13185,-2.99627 0,-1.09425 0.0423,-1.98954 0.0939,-1.98954 0.0516,0 0.59664,0.19685 1.21108,0.43745 1.24643,0.48808 1.18507,0.2452 0.711,2.81436 -0.10353,0.56104 -0.18823,1.39795 -0.18823,1.8598 v 0.83973 h 1.39622 1.39622 l 0.12693,-0.66421 c 0.0698,-0.36532 0.12693,-1.46526 0.12693,-2.4443 0,-1.32092 -0.0682,-1.78009 -0.2646,-1.78009 -0.53293,0 -3.51982,-1.6833 -4.46064,-2.51386 -0.59994,-0.52963 -1.48816,-1.03295 -2.3355,-1.32344 -8.68087,-2.97606 -12.748152,-9.70499 -9.821324,-16.24847 1.179978,-2.63806 2.463334,-4.42018 6.198974,-8.60818 3.31393,-3.71521 4.79358,-6.32645 4.79358,-8.45955 0,-1.59469 -1.15196,-2.16712 -4.36503,-2.16907 -1.11771,-6.8e-4 -2.58054,-0.0951 -3.25072,-0.20976 -1.23172,-0.21079 -3.778885,-1.32129 -3.779331,-1.56951 -1.33e-4,-0.0741 2.073026,0.21448 4.083721,0.24882 2.74037,0.0468 3.6558,-0.001 3.6558,-0.19255 0,-0.14023 -0.28499,-1.3021 -0.6333,-2.58194 -0.93836,-3.44797 -0.58175,-5.03599 1.32539,-5.90194 2.11287,-0.95937 4.52638,-0.66574 7.6376,0.92917 1.43411,0.73518 1.83288,1.05524 2.37766,1.90838 0.80909,1.26704 1.05987,2.13625 1.21015,4.19449 0.2071,2.83634 -0.58481,5.9374 -2.95528,11.57272 -1.51764,3.60787 -1.97093,5.23244 -1.77107,6.34742 0.12105,0.6753 0.14711,0.68954 1.69538,0.92686 4.64843,0.71252 8.85637,2.90345 13.55455,7.0574 1.22868,1.08635 2.63961,2.16815 3.13542,2.404 1.08698,0.51707 2.9108,0.68369 4.63265,0.42323 1.42131,-0.21499 1.51894,-0.10886 0.95317,1.03618 -0.86931,1.75938 -2.95479,3.38342 -5.47185,4.26114 -1.17199,0.40868 -1.84952,0.49592 -3.85865,0.49683 -2.14812,9.8e-4 -2.47521,0.0491 -2.75901,0.40619 -0.25246,0.31762 -0.67256,0.42632 -1.9456,0.50345 -3.16096,0.19151 -8.66604,-1.79347 -11.08809,-3.99807 -1.75963,-1.60165 -2.78536,-3.74021 -2.79285,-5.82291 -0.004,-1.23496 -0.26897,-1.59534 -0.68419,-0.93211 -0.88324,1.41079 -0.42268,4.38546 0.98825,6.38289 1.53595,2.17443 4.84346,4.18307 8.53333,5.18227 2.6571,0.71953 6.50001,0.83678 7.61575,0.23237 0.39716,-0.21514 1.3381,-0.42989 2.13241,-0.48667 0.78189,-0.0559 1.96459,-0.19111 2.62823,-0.30047 0.66364,-0.10937 1.25767,-0.14281 1.32007,-0.0743 0.17327,0.19023 -2.76112,2.93962 -4.28032,4.01044 -1.70706,1.20324 -2.82451,1.7027 -4.73208,2.11508 -1.91409,0.41378 -1.99971,0.40523 -1.13004,-0.11291 0.52275,-0.31146 0.57648,-0.38472 0.20308,-0.27694 -3.28417,0.94796 -3.92127,1.13936 -3.96225,1.19032 -0.0262,0.0326 -0.20359,1.20705 -0.39415,2.60987 -0.19056,1.40281 -0.43069,2.58245 -0.53362,2.62142 -0.10293,0.039 -0.18715,1.25846 -0.18715,2.70998 v 2.63914 h 3.25371 3.25371 l -0.05,-2.77417 c -0.0407,-2.25547 0.006,-2.81076 0.24953,-2.96991 0.28715,-0.18766 8.06191,-0.12467 8.24485,0.0668 0.0482,0.0505 0.14499,2.39221 0.21507,5.20388 l 0.12741,5.11214 -1.17928,1.29395 -1.17927,1.29394 H 104.9266 85.911783 Z m 19.201752,-61.63372 c 0.20315,-0.1867 0.3554,-0.62603 0.3554,-1.02554 0,-1.22147 -1.4004,-1.80796 -2.23395,-0.93558 -0.55255,0.57829 -0.51043,1.39805 0.10492,2.04207 0.54847,0.57402 1.08773,0.54941 1.77363,-0.081 z m -13.384334,3.06119 c -0.743406,-0.35819 -1.058334,-1.10352 -0.647814,-1.53316 0.276032,-0.28889 8.077538,-2.29971 8.244478,-2.12499 0.15919,0.16661 0.37575,3.55168 0.23312,3.64393 -0.0766,0.0496 -1.72548,0.14247 -3.664195,0.20649 -2.831438,0.0935 -3.650984,0.0557 -4.165589,-0.19227 z m 17.699924,-8.62182 c -2.12225,-0.57008 -4.08712,-1.06943 -4.36636,-1.10966 -0.47193,-0.068 -0.51668,-0.17803 -0.63481,-1.56099 -0.21077,-2.46751 -0.19397,-4.95916 0.0344,-5.1069 0.31701,-0.20504 0.7435,0.25079 1.87141,2.00015 l 1.01981,1.5817 1.19007,-1.28866 c 1.05513,-1.14253 1.19007,-1.38683 1.19007,-2.15454 0,-0.75861 0.0803,-0.90934 0.64791,-1.21655 0.62539,-0.33847 0.66068,-0.33415 1.01544,0.12436 0.44778,0.57875 0.46,0.98121 0.0545,1.79502 -0.29,0.58204 -0.27472,0.72587 0.23154,2.17862 0.51369,1.47404 0.73415,1.78523 0.97537,1.37674 0.15283,-0.25881 3.48273,-2.37188 3.73775,-2.37188 0.53158,0 0.41949,0.8573 -0.28102,2.14931 -0.40488,0.74675 -1.09348,2.09899 -1.53022,3.00497 -0.43674,0.90599 -0.90729,1.64445 -1.04567,1.64104 -0.13837,-0.003 -1.98798,-0.47264 -4.11024,-1.04273 z" id="path1"/></g></svg>